<svg id="Capa_1" data-name="Capa 1" xmlns="http://www.w3.org/2000/svg" xmlns:xlink="http://www.w3.org/1999/xlink" viewBox="0 0 729.68 662.84"><defs><style>.cls-1{fill:url(#Degradado_sin_nombre_21);}.cls-2{fill:url(#Degradado_sin_nombre_16);}.cls-3{fill:url(#Degradado_sin_nombre_258);}.cls-4{fill:url(#Degradado_sin_nombre_383);}.cls-5{fill:url(#Degradado_sin_nombre_388);}.cls-6{fill:url(#Degradado_sin_nombre_362);}.cls-7{fill:#0035d1;}</style><linearGradient id="Degradado_sin_nombre_21" x1="274.49" y1="625.34" x2="692.77" y2="238.87" gradientUnits="userSpaceOnUse"><stop offset="0.02" stop-color="#dee2e4"/><stop offset="0.42" stop-color="#fff"/><stop offset="1" stop-color="#a4b5bc"/></linearGradient><linearGradient id="Degradado_sin_nombre_16" x1="238.64" y1="250.63" x2="444.06" y2="104.14" gradientUnits="userSpaceOnUse"><stop offset="0" stop-color="#cfd9db"/><stop offset="1" stop-color="#b0bfc6"/></linearGradient><linearGradient id="Degradado_sin_nombre_258" x1="507.6" y1="459.12" x2="171.24" y2="396.37" gradientUnits="userSpaceOnUse"><stop offset="0.02" stop-color="#0090d7"/><stop offset="1" stop-color="#0035d1"/></linearGradient><linearGradient id="Degradado_sin_nombre_383" x1="280.92" y1="670.37" x2="767.75" y2="559.22" gradientUnits="userSpaceOnUse"><stop offset="0.16" stop-color="#8073fc"/><stop offset="0.2" stop-color="#737ff5"/><stop offset="0.3" stop-color="#50a2e1"/><stop offset="0.41" stop-color="#33bed1"/><stop offset="0.53" stop-color="#1cd4c4"/><stop offset="0.66" stop-color="#0ce4bb"/><stop offset="0.8" stop-color="#03edb6"/><stop offset="1" stop-color="#00f0b4"/></linearGradient><linearGradient id="Degradado_sin_nombre_388" x1="822.93" y1="439.48" x2="841.99" y2="316.52" gradientUnits="userSpaceOnUse"><stop offset="0.02" stop-color="#aa26ff"/><stop offset="1" stop-color="#8073fc"/></linearGradient><linearGradient id="Degradado_sin_nombre_362" x1="684.95" y1="71.99" x2="695.97" y2="522.6" gradientUnits="userSpaceOnUse"><stop offset="0.01" stop-color="#0035d1"/><stop offset="0.44" stop-color="#0a70f0"/><stop offset="1" stop-color="#0035d1"/></linearGradient></defs><title>T3</title><path class="cls-1" d="M627.46,179.9c-5.25,21.68-16,43-31.34,63.13q-3,3.9-6.23,7.75c-.65.14-1.31.32-2,.49l-93.82-8.21,1.36,2L517,276.48a381.85,381.85,0,0,0-98.12,65q-8.07,7.42-15.61,15.26c-2,.48-4.06.95-6.08,1.36a1.49,1.49,0,0,0-.08.32c-.54,2.21-1,4.41-1.51,6.62q-4.86,5.37-9.41,10.9-9.66,11.7-18.11,24.12c-16.68,24.5-31,54.86-39.87,82.88-73.2-10.6-91.72-24.34-121.56-46a321.67,321.67,0,0,1,12.94-39.43,295.18,295.18,0,0,1,12.91-27.72c1.87-3.58,3.84-7.11,5.87-10.62.89-1.55,1.79-3.1,2.73-4.63q3.95-6.52,8.19-12.9,4.59-6.84,9.54-13.46a335,335,0,0,1,21.83-26.29q7.44-8.12,15.46-15.8c51.37-49.21,119.74-85,197.13-100.39q17.32-3.44,35.21-5.52a446.89,446.89,0,0,1,99-.32ZM319.94,518.31a250.1,250.1,0,0,1-63.55-12c-19.8-6.53-36.34-17-54.63-26.17-.79-1.53-1.19,9.49-1.15,10.83.81,28.09,6.56,56.85,26.08,78.44,23.89,26.41,58.12,31.84,92.1,37.31a287.23,287.23,0,0,1,1.15-88.39ZM831.6,369.56a322.84,322.84,0,0,0-1.81-34.24c-.08-.74-.16-1.46-.24-2.19l-19.38,19.5c12.12,29.36,16.77,58.68,14.45,83.68A320.82,320.82,0,0,0,831.6,369.56Z" transform="translate(-155.32 -41)"/><path class="cls-2" d="M614.29,88.94c-308.52.33-442.92,199.79-454.94,256.26-.47-10,1.85-13,2.18-17.52,2.05-15.49,3.09-31.38,7.29-46.12h0c2.11-7.39,4.47-14.64,7.07-21.81h0C222.32,132.29,347.27,41,494.1,41a346.1,346.1,0,0,1,88.42,11.4h0A141.42,141.42,0,0,1,614.29,88.94Z" transform="translate(-155.32 -41)"/><path class="cls-3" d="M529.88,454.61A290.71,290.71,0,0,1,492.49,479a323.32,323.32,0,0,1-67.11,27.38q-9.51,2.71-19,4.8a314.88,314.88,0,0,1-86.44,7.18c-66.43-3.89-142-30.65-159.75-99.86-5.21-20.31-5.69-41.44-4-62.22,1.66-20.32,7.45-37.41,8.73-57.59-1.81,28.55-.83,85.7,15.64,109.58a128.7,128.7,0,0,0,26.48,27.86,199.83,199.83,0,0,0,40,24.12c25.53,11.88,53.23,19.09,81.23,22.75a360.86,360.86,0,0,0,68.39,2.28c2.83-.14,5.67-.35,8.52-.59a410.73,410.73,0,0,0,62.58-9.94A409.2,409.2,0,0,0,529.88,454.61Z" transform="translate(-155.32 -41)"/><path class="cls-4" d="M715.67,536.37,684.84,640.65l-18.69,63.19-9.94-13.79c-3.93-5.45-9.62-17.77-16.14-20.45-7.51-3.08-21.32,6-28.52,8.5A345.5,345.5,0,0,1,578,688.05a352.06,352.06,0,0,1-140.86,5.23A347.31,347.31,0,0,1,302.8,640.19c-25.59-17-76.64-65.77-81.63-77.6,24.32,13.46,65.75,39,97.62,44.11,45.36,7.32,96.62,5.59,149-6.87A413.14,413.14,0,0,0,514.1,585.9a380.31,380.31,0,0,0,50.65-22.76l-27.7-38.44,78,5.1,50.21,3.28Z" transform="translate(-155.32 -41)"/><path class="cls-5" d="M842.93,364.79c0,35.14-19.65,90.61-33.32,114.9-.82,1.47-1.67,2.91-2.52,4.32,2.36-8,15.79-39.49,17.53-47.7a323.36,323.36,0,0,0,5.17-101c-.08-.74-.16-1.46-.24-2.19v0l.41-.4.46-.46.61-.61.34-.35.76-.77,3-3,.85-.87,3-3A213.64,213.64,0,0,1,842.93,364.79Z" transform="translate(-155.32 -41)"/><path class="cls-6" d="M885,277.28l-2.09,2.09-13.39,13.49-14.65,14.76,0,.06L839,323.62l-3,3-.85.87-3,3-.76.77-.34.35-.61.61-.46.46-.31.31-.1.11-19.38,19.5-1.06,1.09-.1.08-26.9,27.09L697.79,465.8,691.68,472,667.76,496l-8.26-12-25.86-37.65-25.09-36.56-16.9-24.63-57.87-84.29L517,276.48,495.46,245l-1.36-2,93.82,8.21,1.45.13c.18-.21.36-.41.52-.62q3.23-3.84,6.23-7.75c15.35-20.1,26.09-41.45,31.34-63.13a130,130,0,0,0,3.14-18.71,119.14,119.14,0,0,0-3-40.2,117.32,117.32,0,0,0-5.47-16.47,120,120,0,0,0-7.82-15.58A141.42,141.42,0,0,0,582.54,52.4,339.42,339.42,0,0,1,670,89.1q7.17,4.25,14.09,8.85c32.09,21.34,61.95,48.11,84.86,79.28a239,239,0,0,1,29.15,51.52c1.59,3.95,13,41.85,10.59,41.85l7.55.65,3.79.34,29.54,2.59,25.33,2.22,2.11.18h.07Z" transform="translate(-155.32 -41)"/><path class="cls-7" d="M325.28,289H224.6l-6.18,29.62h54.52L243.1,344.79l-5,24.19H255c12.54,0,18.52,3.9,18.52,11.44,0,10.06-9,15.89-25.08,15.89-13.13,0-26.65-3.88-36.61-11.25l-18.32,27.33c13.32,9.86,32.05,14.92,52.34,14.92,39,0,67.44-20.75,67.44-49.2,0-16.88-10.54-29.08-28.45-33.92L320.49,313Z" transform="translate(-155.32 -41)"/><path class="cls-7" d="M391.54,338.2c-11.36,0-20.91,2.71-28.46,8.9,5-17.43,17.71-30.4,40.59-30.4,9.76,0,18.32,1.72,25.66,6.58l17.92-27.13c-9.35-6.39-25.06-9.86-41.4-9.86-60.88,0-86.55,46.68-86.55,85.8,0,36.42,24.07,55.22,57.89,55.22s58.53-19.39,58.53-50C435.72,351.94,414.21,338.2,391.54,338.2ZM376.82,400c-11.76,0-18.12-7.18-18.12-16.08,0-10.85,8.56-18.2,20.5-18.2,10.74,0,17.71,5.62,17.71,15.29C396.91,392.8,388,400,376.82,400Z" transform="translate(-155.32 -41)"/><path class="cls-7" d="M512.66,286.29c-43.35,0-74,38.77-74,88.71,0,33.12,20.3,52.31,52.14,52.31,37.08,0,64.86-28.32,72.15-67.77ZM494.6,395.91c-10,0-16.32-6.19-16.32-21.87,0-21.71,10.16-56.38,30.66-56.38,9.72,0,16.32,6.19,16.32,21.9C525.26,361.23,515.09,395.91,494.6,395.91Z" transform="translate(-155.32 -41)"/><path class="cls-6" d="M885,277.28l-2.09,2.09-13.39,13.49-14.65,14.76,0,.06L839,323.62l-3,3-.85.87-3,3-.76.77-.34.35-.61.61-.46.46-.31.31-.1.11-19.38,19.5-1.06,1.09-.1.08-26.9,27.09L697.79,465.8,691.68,472,667.76,496l-8.26-12-25.86-37.65-25.09-36.56-16.9-24.63-57.87-84.29L517,276.48,495.46,245l-1.36-2,93.82,8.21,1.45.13c.18-.21.36-.41.52-.62q3.23-3.84,6.23-7.75c15.35-20.1,26.09-41.45,31.34-63.13a130,130,0,0,0,3.14-18.71,119.14,119.14,0,0,0-3-40.2,117.32,117.32,0,0,0-5.47-16.47,120,120,0,0,0-7.82-15.58A141.42,141.42,0,0,0,582.54,52.4,339.42,339.42,0,0,1,670,89.1q7.17,4.25,14.09,8.85c32.09,21.34,61.95,48.11,84.86,79.28a239,239,0,0,1,29.15,51.52c1.59,3.95,13,41.85,10.59,41.85l7.55.65,3.79.34,29.54,2.59,25.33,2.22,2.11.18h.07Z" transform="translate(-155.32 -41)"/></svg>