<svg id="Capa_1" data-name="Capa 1" xmlns="http://www.w3.org/2000/svg" xmlns:xlink="http://www.w3.org/1999/xlink" viewBox="0 0 915.98 311.4"><defs><style>.cls-1{fill:#fff;}.cls-2{fill:url(#Degradado_sin_nombre_6);}.cls-3{fill:url(#Degradado_sin_nombre_12);}.cls-4{fill:url(#Degradado_sin_nombre_219);}.cls-5{fill:url(#Degradado_sin_nombre_246);}.cls-6{fill:url(#Degradado_sin_nombre_82);}.cls-7{fill:url(#Degradado_sin_nombre_188);}</style><linearGradient id="Degradado_sin_nombre_6" x1="681.73" y1="334.02" x2="874.41" y2="155.98" gradientUnits="userSpaceOnUse"><stop offset="0.02" stop-color="#8b8b8b"/><stop offset="0.42" stop-color="#969696"/><stop offset="1" stop-color="#646464"/></linearGradient><linearGradient id="Degradado_sin_nombre_12" x1="665.55" y1="158.95" x2="760.25" y2="91.41" gradientUnits="userSpaceOnUse"><stop offset="0" stop-color="#b0b0b0"/><stop offset="1" stop-color="#898989"/></linearGradient><linearGradient id="Degradado_sin_nombre_219" x1="789.74" y1="257.39" x2="635.61" y2="228.63" gradientUnits="userSpaceOnUse"><stop offset="0" stop-color="#ededed"/><stop offset="1" stop-color="#a6a6a6"/></linearGradient><linearGradient id="Degradado_sin_nombre_246" x1="686.19" y1="356.77" x2="908.9" y2="305.92" gradientUnits="userSpaceOnUse"><stop offset="0.15" stop-color="#a6a6a6"/><stop offset="0.28" stop-color="#bfbfbf"/><stop offset="0.42" stop-color="#d6d6d6"/><stop offset="0.58" stop-color="#e6e6e6"/><stop offset="0.76" stop-color="#efefef"/><stop offset="1" stop-color="#f2f2f2"/></linearGradient><linearGradient id="Degradado_sin_nombre_82" x1="933.72" y1="248.77" x2="942.66" y2="191.05" gradientUnits="userSpaceOnUse"><stop offset="0.01" stop-color="#616161"/><stop offset="1" stop-color="#848484"/></linearGradient><linearGradient id="Degradado_sin_nombre_188" x1="870.71" y1="76.19" x2="875.88" y2="287.86" gradientUnits="userSpaceOnUse"><stop offset="0" stop-color="#a6a6a6"/><stop offset="0.44" stop-color="#fff"/><stop offset="1" stop-color="#a6a6a6"/></linearGradient></defs><title>Sin título-1</title><path class="cls-1" d="M139,186.55V243.8H111.23V187.4c0-14.18-7-20.77-17.82-20.77-11.08,0-19.36,6.88-19.36,22.17v55H46.27V145.58H73.21v11.23c6.59-8.7,16.28-13.19,28.9-13.19C125.27,143.62,139,158.91,139,186.55Z" transform="translate(-46.27 -61.6)"/><path class="cls-1" d="M144.76,205.64c0-22.87,18.1-39.15,42.94-39.15,25.12,0,42.94,16.28,42.94,39.15s-17.82,39.43-42.94,39.43C162.86,245.07,144.76,228.65,144.76,205.64Zm58.94,0c0-11.51-6.88-18-16-18s-16,6.45-16,18,7,18.24,16,18.24S203.7,217.28,203.7,205.64Z" transform="translate(-46.27 -61.6)"/><path class="cls-1" d="M284.93,240.72c-4.63,2.94-11.5,4.35-18.52,4.35-19.5,0-30.73-9.55-30.73-29V142.86h26.66v27.7H279.6v19.92H262.34v25.26c0,5.61,3.09,8.7,7.86,8.7a14.55,14.55,0,0,0,8.14-2.39Z" transform="translate(-46.27 -61.6)"/><path class="cls-1" d="M288.16,167.75h26.66V243.8H288.16Z" transform="translate(-46.27 -61.6)"/><path class="cls-1" d="M320.29,205.64c0-22.87,18.1-39.15,43.63-39.15,17.26,0,30.45,7.72,35.64,20.91l-20.62,10.52c-3.65-7.16-9-10.24-15.16-10.24-9.26,0-16.55,6.45-16.55,18,0,11.78,7.29,18.24,16.55,18.24,6.18,0,11.51-3.09,15.16-10.24l20.62,10.52c-5.19,13.19-18.38,20.91-35.64,20.91C338.39,245.07,320.29,228.79,320.29,205.64Z" transform="translate(-46.27 -61.6)"/><path class="cls-1" d="M402.65,167.75h26.66V243.8H402.65Z" transform="translate(-46.27 -61.6)"/><path class="cls-1" d="M520,167.75V243.8h-25.4v-7.57c-5.05,6-12.49,8.84-22.45,8.84-20.63,0-37.32-15.16-37.32-39.43s16.69-39.15,37.32-39.15c8.84,0,16,2.53,21.19,7.86v-6.6Zm-26.24,37.89c0-11.51-7-18-16-18s-16,6.45-16,18,7,18.24,16,18.24S493.71,217.28,493.71,205.64Z" transform="translate(-46.27 -61.6)"/><path class="cls-1" d="M524,237.21,532,219c7,4.35,17.26,7,26.52,7,9,0,11.93-2,11.93-5.19,0-10.24-44.91,1.4-44.91-29,0-14.32,13.19-25.26,37.05-25.26,10.66,0,22.45,2.24,30,6.45l-8,18.1a44.69,44.69,0,0,0-21.89-5.61c-9,0-12.21,2.53-12.21,5.33,0,10.53,44.76-.84,44.76,29.33,0,14-12.91,25-37.6,25C544.78,245.07,531.45,241.84,524,237.21Z" transform="translate(-46.27 -61.6)"/><polygon class="cls-1" points="241.89 81.26 241.89 99.19 262.06 99.19 268.55 103.78 268.55 99.19 268.55 81.26 241.89 81.26"/><rect class="cls-1" x="356.38" y="81.26" width="26.66" height="17.93"/><path class="cls-2" d="M844.47,126.86a81.43,81.43,0,0,1-14.33,29.65c-.92,1.22-1.86,2.44-2.85,3.64l-.9.23-42.91-3.86.63.94L794,172.23a174.27,174.27,0,0,0-44.87,30.54c-2.46,2.33-4.84,4.71-7.14,7.17-.93.23-1.85.44-2.78.64a.4.4,0,0,0,0,.15c-.25,1-.48,2.07-.69,3.11-1.48,1.68-2.92,3.38-4.31,5.12q-4.41,5.49-8.28,11.33a157.62,157.62,0,0,0-18.23,38.94c-33.48-5-41.95-11.44-55.59-21.6A153.61,153.61,0,0,1,658,229.1c1.74-4.43,3.72-8.77,5.9-13q1.29-2.52,2.69-5c.41-.73.82-1.46,1.25-2.18q1.8-3.06,3.75-6.06c1.39-2.14,2.85-4.25,4.36-6.32a156.29,156.29,0,0,1,10-12.36q3.4-3.81,7.07-7.42c23.49-23.12,54.76-39.92,90.15-47.16Q791,128,799.21,127a198.54,198.54,0,0,1,45.26-.15Zm-140.63,159a111.73,111.73,0,0,1-29.07-5.65c-9-3.06-16.62-8-25-12.29-.36-.72-.54,4.46-.53,5.09.37,13.19,3,26.71,11.93,36.85,10.92,12.4,26.58,15,42.12,17.53a138.67,138.67,0,0,1,.53-41.53Zm234-69.89a158.39,158.39,0,0,0-.82-16.08l-.12-1L928,208c5.54,13.8,7.67,27.57,6.61,39.31A154.94,154.94,0,0,0,937.83,216Z" transform="translate(-46.27 -61.6)"/><path class="cls-3" d="M838.45,84.12C697.36,84.28,635.89,178,630.4,204.51c-.22-4.71.84-6.1,1-8.23.94-7.28,1.41-14.74,3.34-21.66h0q1.44-5.21,3.23-10.25h0A154.59,154.59,0,0,1,823.92,67h0A66.07,66.07,0,0,1,838.45,84.12Z" transform="translate(-46.27 -61.6)"/><path class="cls-4" d="M799.84,255.91a131.45,131.45,0,0,1-17.09,11.44,146.22,146.22,0,0,1-30.7,12.86c-2.89.85-5.79,1.6-8.68,2.26a140.77,140.77,0,0,1-39.53,3.37c-30.38-1.83-65-14.4-73.06-46.91-2.38-9.55-2.6-19.47-1.83-29.24.76-9.54,3.41-17.57,4-27.05-.82,13.41-.38,40.26,7.16,51.48a59.83,59.83,0,0,0,12.11,13.09,91.39,91.39,0,0,0,18.28,11.33,124.52,124.52,0,0,0,37.15,10.69,161.1,161.1,0,0,0,31.27,1.07c1.29-.07,2.59-.16,3.9-.28a182.38,182.38,0,0,0,28.62-4.67A183.41,183.41,0,0,0,799.84,255.91Z" transform="translate(-46.27 -61.6)"/><path class="cls-5" d="M884.81,294.32l-14.1,49L862.17,373l-4.55-6.48c-1.8-2.56-4.4-8.35-7.38-9.61-3.44-1.44-9.75,2.81-13,4a155.1,155.1,0,0,1-15.35,4.67A155.43,155.43,0,0,1,696,343.1c-11.71-8-35-30.9-37.33-36.46,11.12,6.33,30.07,18.31,44.64,20.73,20.74,3.43,44.19,2.62,68.12-3.23a188.25,188.25,0,0,0,21.2-6.54,171.93,171.93,0,0,0,23.17-10.7l-12.67-18.06,35.67,2.4,23,1.54Z" transform="translate(-46.27 -61.6)"/><path class="cls-6" d="M943,213.72c0,16.5-9,42.56-15.23,54-.38.69-.77,1.36-1.16,2,1.08-3.74,7.22-18.55,8-22.41A154.94,154.94,0,0,0,937.83,216a158.39,158.39,0,0,0-.82-16.08l-.12-1h0l.19-.18.21-.22.28-.29.16-.16.34-.36,1.38-1.43.39-.41,1.37-1.41A103.17,103.17,0,0,1,943,213.72Z" transform="translate(-46.27 -61.6)"/><path class="cls-1" d="M706.28,178.11h-46L657.41,192h24.93l-13.65,12.3-2.27,11.36h7.73c5.74,0,8.47,1.83,8.47,5.38,0,4.73-4.1,7.46-11.47,7.46a28.19,28.19,0,0,1-16.74-5.28L646,236.08c6.09,4.63,14.66,7,23.94,7,17.83,0,30.84-9.75,30.84-23.12,0-7.93-4.82-13.66-13-15.93l16.29-14.65Z" transform="translate(-46.27 -61.6)"/><path class="cls-1" d="M736.58,201.22c-5.19,0-9.56,1.28-13,4.19,2.27-8.2,8.1-14.29,18.56-14.29,4.46,0,8.38.81,11.73,3.09l8.2-12.74c-4.28-3-11.46-4.64-18.94-4.64-27.84,0-39.57,21.94-39.57,40.31,0,17.12,11,26,26.47,26s26.77-9.11,26.77-23.49C756.79,207.68,747,201.22,736.58,201.22Zm-6.73,29c-5.38,0-8.29-3.37-8.29-7.56,0-5.1,3.92-8.55,9.38-8.55,4.91,0,8.09,2.64,8.09,7.19C739,226.88,734.94,230.25,729.85,230.25Z" transform="translate(-46.27 -61.6)"/><path class="cls-1" d="M792,176.83c-19.82,0-33.83,18.22-33.83,41.68,0,15.56,9.28,24.58,23.85,24.58,17,0,29.66-13.31,33-31.84Zm-8.26,51.51c-4.55,0-7.46-2.91-7.46-10.28,0-10.2,4.65-26.49,14-26.49,4.45,0,7.46,2.91,7.46,10.29C797.73,212,793.08,228.34,783.71,228.34Z" transform="translate(-46.27 -61.6)"/><path class="cls-7" d="M962.25,172.6l-1,1-6.13,6.33-6.7,6.94,0,0-7.24,7.48-1.37,1.41-.39.41-1.38,1.43-.34.36-.16.16-.28.29-.21.22-.14.14-.05.05L928,208l-.49.51,0,0-12.3,12.73-38.56,39.89-2.8,2.89L862.9,275.38l-3.78-5.66L847.3,252l-11.48-17.17-7.72-11.58-26.47-39.59L794,172.23l-9.86-14.77-.63-.94,42.91,3.86.66.06a3.36,3.36,0,0,0,.24-.29c1-1.2,1.93-2.42,2.85-3.64a81.43,81.43,0,0,0,14.33-29.65,62.3,62.3,0,0,0,1.44-8.8,56.93,56.93,0,0,0-7.46-33.94A66.07,66.07,0,0,0,823.93,67a153.24,153.24,0,0,1,40,17.24q3.29,2,6.45,4.16C885,98.38,898.7,111,909.18,125.6a112.53,112.53,0,0,1,13.32,24.2c.73,1.86,6,19.66,4.85,19.66l3.45.31,1.74.16,13.51,1.22,11.58,1,1,.08h0Z" transform="translate(-46.27 -61.6)"/></svg>