<svg id="Capa_1" data-name="Capa 1" xmlns="http://www.w3.org/2000/svg" xmlns:xlink="http://www.w3.org/1999/xlink" viewBox="0 0 851.36 289.43"><defs><style>.cls-1{fill:#0035d1;}.cls-2{fill:url(#Degradado_sin_nombre_21);}.cls-3{fill:url(#Degradado_sin_nombre_16);}.cls-4{fill:url(#Degradado_sin_nombre_258);}.cls-5{fill:url(#Degradado_sin_nombre_383);}.cls-6{fill:url(#Degradado_sin_nombre_388);}.cls-7{fill:url(#Degradado_sin_nombre_362);}</style><linearGradient id="Degradado_sin_nombre_21" x1="677.27" y1="307.09" x2="856.35" y2="141.62" gradientUnits="userSpaceOnUse"><stop offset="0.02" stop-color="#dee2e4"/><stop offset="0.42" stop-color="#fff"/><stop offset="1" stop-color="#a4b5bc"/></linearGradient><linearGradient id="Degradado_sin_nombre_16" x1="662.23" y1="144.37" x2="750.25" y2="81.6" gradientUnits="userSpaceOnUse"><stop offset="0" stop-color="#cfd9db"/><stop offset="1" stop-color="#b0bfc6"/></linearGradient><linearGradient id="Degradado_sin_nombre_258" x1="777.67" y1="235.87" x2="634.41" y2="209.14" gradientUnits="userSpaceOnUse"><stop offset="0.02" stop-color="#0090d7"/><stop offset="1" stop-color="#0035d1"/></linearGradient><linearGradient id="Degradado_sin_nombre_383" x1="681.42" y1="328.24" x2="888.41" y2="280.98" gradientUnits="userSpaceOnUse"><stop offset="0.16" stop-color="#8073fc"/><stop offset="0.2" stop-color="#737ff5"/><stop offset="0.3" stop-color="#50a2e1"/><stop offset="0.41" stop-color="#33bed1"/><stop offset="0.53" stop-color="#1cd4c4"/><stop offset="0.66" stop-color="#0ce4bb"/><stop offset="0.8" stop-color="#03edb6"/><stop offset="1" stop-color="#00f0b4"/></linearGradient><linearGradient id="Degradado_sin_nombre_388" x1="911.48" y1="227.86" x2="919.79" y2="174.21" gradientUnits="userSpaceOnUse"><stop offset="0.02" stop-color="#aa26ff"/><stop offset="1" stop-color="#8073fc"/></linearGradient><linearGradient id="Degradado_sin_nombre_362" x1="852.91" y1="67.46" x2="857.72" y2="264.19" gradientUnits="userSpaceOnUse"><stop offset="0.01" stop-color="#0035d1"/><stop offset="0.44" stop-color="#0a70f0"/><stop offset="1" stop-color="#0035d1"/></linearGradient></defs><title>T1</title><path class="cls-1" d="M172.85,170v53.21H147V170.82c0-13.18-6.52-19.31-16.56-19.31-10.3,0-18,6.39-18,20.61v51.12H86.64V132h25v10.43c6.13-8.08,15.13-12.26,26.87-12.26C160.07,130.12,172.85,144.34,172.85,170Z" transform="translate(-86.64 -53.9)"/><path class="cls-1" d="M178.19,187.77c0-21.26,16.82-36.39,39.91-36.39,23.34,0,39.9,15.13,39.9,36.39s-16.56,36.65-39.9,36.65C195,224.42,178.19,209.16,178.19,187.77Zm54.77,0c0-10.69-6.39-16.69-14.86-16.69s-14.87,6-14.87,16.69,6.52,16.95,14.87,16.95S233,198.6,233,187.77Z" transform="translate(-86.64 -53.9)"/><path class="cls-1" d="M308.47,220.38c-4.3,2.73-10.69,4-17.21,4-18.13,0-28.57-8.87-28.57-27v-68h24.78v25.75h16v18.52h-16v23.47c0,5.22,2.87,8.09,7.31,8.09a13.59,13.59,0,0,0,7.56-2.22Z" transform="translate(-86.64 -53.9)"/><path class="cls-1" d="M311.47,152.56h24.78v70.68H311.47Z" transform="translate(-86.64 -53.9)"/><path class="cls-1" d="M341.33,187.77c0-21.26,16.82-36.39,40.56-36.39,16,0,28.3,7.18,33.13,19.44l-19.17,9.78c-3.4-6.65-8.35-9.52-14.09-9.52-8.61,0-15.39,6-15.39,16.69,0,11,6.78,16.95,15.39,16.95,5.74,0,10.69-2.86,14.09-9.52L415,205c-4.83,12.26-17.09,19.43-33.13,19.43C358.15,224.42,341.33,209.29,341.33,187.77Z" transform="translate(-86.64 -53.9)"/><path class="cls-1" d="M417.88,152.56h24.78v70.68H417.88Z" transform="translate(-86.64 -53.9)"/><path class="cls-1" d="M526.91,152.56v70.68H503.3v-7c-4.69,5.61-11.6,8.22-20.86,8.22-19.18,0-34.69-14.09-34.69-36.65s15.51-36.39,34.69-36.39c8.21,0,14.86,2.35,19.69,7.31v-6.13Zm-24.39,35.21c0-10.69-6.52-16.69-14.87-16.69s-14.86,6-14.86,16.69,6.52,16.95,14.86,16.95S502.52,198.6,502.52,187.77Z" transform="translate(-86.64 -53.9)"/><path class="cls-1" d="M530.69,217.11l7.43-17c6.52,4,16,6.52,24.65,6.52,8.35,0,11.08-1.83,11.08-4.82,0-9.53-41.73,1.3-41.73-27,0-13.3,12.26-23.48,34.43-23.48,9.91,0,20.87,2.09,27.91,6L587,174.21A41.38,41.38,0,0,0,566.68,169c-8.35,0-11.34,2.35-11.34,5,0,9.78,41.6-.79,41.6,27.25,0,13.05-12,23.22-35,23.22C550,224.42,537.6,221.42,530.69,217.11Z" transform="translate(-86.64 -53.9)"/><polygon class="cls-1" points="224.83 75.52 224.83 92.19 243.57 92.19 249.61 96.45 249.61 92.19 249.61 75.52 224.83 75.52"/><rect class="cls-1" x="331.24" y="75.52" width="24.78" height="16.67"/><path class="cls-2" d="M828.53,114.55a75.74,75.74,0,0,1-13.32,27.56q-1.28,1.71-2.65,3.38l-.83.22-39.89-3.59.58.87,9.18,13.73a162,162,0,0,0-41.71,28.38q-3.43,3.26-6.64,6.67c-.86.21-1.72.41-2.58.59a.39.39,0,0,0,0,.14c-.23,1-.45,1.93-.64,2.89q-2.07,2.34-4,4.76-4.11,5.11-7.7,10.53a146.67,146.67,0,0,0-16.95,36.19c-31.11-4.63-39-10.63-51.67-20.07a144.33,144.33,0,0,1,5.5-17.22,131.52,131.52,0,0,1,5.49-12.1c.79-1.57,1.63-3.11,2.5-4.64.37-.67.76-1.35,1.15-2q1.68-2.85,3.49-5.63,2-3,4.05-5.88a146.87,146.87,0,0,1,9.28-11.48c2.11-2.36,4.31-4.66,6.57-6.9,21.84-21.49,50.9-37.1,83.79-43.84,4.91-1,9.9-1.8,15-2.4a185,185,0,0,1,42.06-.14ZM697.82,262.31a103.65,103.65,0,0,1-27-5.25c-8.42-2.85-15.45-7.39-23.22-11.42-.34-.67-.51,4.14-.49,4.73.34,12.26,2.79,24.82,11.08,34.25,10.16,11.53,24.71,13.9,39.15,16.29a128.77,128.77,0,0,1,.49-38.6ZM915.3,197.36a144.71,144.71,0,0,0-.77-15c0-.32-.07-.64-.1-1L906.19,190c5.16,12.82,7.13,25.62,6.15,36.54A144.26,144.26,0,0,0,915.3,197.36Z" transform="translate(-86.64 -53.9)"/><path class="cls-3" d="M822.94,74.83C691.8,75,634.67,162.07,629.56,186.73c-.2-4.38.79-5.68.92-7.66.88-6.76,1.32-13.7,3.11-20.13h0c.89-3.22,1.9-6.39,3-9.52h0A143.7,143.7,0,0,1,809.43,58.87h0A61.41,61.41,0,0,1,822.94,74.83Z" transform="translate(-86.64 -53.9)"/><path class="cls-4" d="M787.05,234.5a122.46,122.46,0,0,1-15.89,10.63,135.59,135.59,0,0,1-28.52,11.95q-4,1.19-8.08,2.1a130.45,130.45,0,0,1-36.74,3.13c-28.24-1.7-60.37-13.38-67.9-43.6-2.22-8.87-2.42-18.1-1.7-27.17.7-8.87,3.17-16.34,3.71-25.15-.77,12.47-.35,37.43,6.65,47.85a55.69,55.69,0,0,0,11.26,12.17,85,85,0,0,0,17,10.53,115.83,115.83,0,0,0,34.53,9.93,149.72,149.72,0,0,0,29.07,1c1.2-.06,2.41-.15,3.62-.26a172.57,172.57,0,0,0,53-13.11Z" transform="translate(-86.64 -53.9)"/><path class="cls-5" d="M866,270.2l-13.11,45.53L845,343.32l-4.23-6c-1.67-2.38-4.09-7.76-6.86-8.93-3.19-1.34-9.06,2.61-12.12,3.72a144.71,144.71,0,0,1-131.24-16.56c-10.88-7.44-32.57-28.71-34.69-33.88,10.33,5.88,27.94,17,41.49,19.26,19.28,3.2,41.07,2.44,63.31-3a174,174,0,0,0,19.71-6.08,160.22,160.22,0,0,0,21.53-9.94L790.1,265.1l33.16,2.23,21.35,1.43Z" transform="translate(-86.64 -53.9)"/><path class="cls-6" d="M920.12,195.28c0,15.34-8.36,39.56-14.16,50.17-.35.64-.72,1.27-1.08,1.89,1-3.49,6.72-17.25,7.46-20.83a145.18,145.18,0,0,0,2.19-44.1c0-.32-.07-.64-.1-1h0l.17-.18.2-.2.26-.27.14-.15.33-.33,1.28-1.33.36-.38,1.27-1.31A95.59,95.59,0,0,1,920.12,195.28Z" transform="translate(-86.64 -53.9)"/><path class="cls-7" d="M938,157.07l-.89.91-5.69,5.89-6.23,6.44,0,0-6.73,7-1.27,1.31-.36.38-1.28,1.33-.33.33-.14.15-.26.27-.2.2-.13.13,0,0L906.19,190l-.45.47,0,0-11.43,11.83-35.84,37.07-2.6,2.69-10.17,10.52-3.51-5.26-11-16.44-10.67-16-7.18-10.76-24.6-36.8-7.11-10.65L772.42,143l-.58-.87,39.89,3.59.61.06a3,3,0,0,0,.22-.28q1.38-1.67,2.65-3.38a75.74,75.74,0,0,0,13.32-27.56,59.33,59.33,0,0,0,1.34-8.18,52.86,52.86,0,0,0-3.61-24.74,52.74,52.74,0,0,0-3.32-6.8,61.41,61.41,0,0,0-13.5-16,142.51,142.51,0,0,1,37.17,16q3,1.84,6,3.86c13.64,9.32,26.33,21,36.07,34.62a104.93,104.93,0,0,1,12.39,22.5c.67,1.72,5.53,18.27,4.5,18.27l3.21.29,1.61.14,12.56,1.13,10.76,1,.9.08h0Z" transform="translate(-86.64 -53.9)"/><path class="cls-1" d="M700.09,162.18H657.3l-2.63,12.94h23.17l-12.68,11.42-2.11,10.57h7.18c5.33,0,7.87,1.7,7.87,5,0,4.4-3.81,6.94-10.66,6.94a26.17,26.17,0,0,1-15.56-4.91l-7.79,11.93c5.67,4.31,13.63,6.52,22.25,6.52,16.57,0,28.67-9.06,28.67-21.49,0-7.36-4.48-12.7-12.1-14.81l15.14-13.61Z" transform="translate(-86.64 -53.9)"/><path class="cls-1" d="M728.25,183.67c-4.82,0-8.88,1.18-12.09,3.89,2.11-7.62,7.53-13.28,17.25-13.28,4.15,0,7.79.75,10.91,2.87l7.61-11.84c-4-2.79-10.65-4.31-17.6-4.31-25.87,0-36.78,20.39-36.78,37.46,0,15.91,10.23,24.12,24.6,24.12S747,214.11,747,200.75C747,189.67,737.89,183.67,728.25,183.67Zm-6.26,27c-5,0-7.7-3.13-7.7-7,0-4.74,3.64-7.94,8.72-7.94,4.56,0,7.52,2.45,7.52,6.67C730.53,207.51,726.73,210.64,722,210.64Z" transform="translate(-86.64 -53.9)"/><path class="cls-1" d="M779.73,161c-18.42,0-31.44,16.93-31.44,38.74,0,14.46,8.63,22.84,22.16,22.84,15.76,0,27.57-12.37,30.67-29.59Zm-7.67,47.87c-4.23,0-6.94-2.71-6.94-9.55,0-9.48,4.32-24.62,13-24.62,4.14,0,6.94,2.7,6.94,9.56C785.09,193.73,780.77,208.87,772.06,208.87Z" transform="translate(-86.64 -53.9)"/><path class="cls-7" d="M938,157.07l-.89.91-5.69,5.89-6.23,6.44,0,0-6.73,7-1.27,1.31-.36.38-1.28,1.33-.33.33-.14.15-.26.27-.2.2-.13.13,0,0L906.19,190l-.45.47,0,0-11.43,11.83-35.84,37.07-2.6,2.69-10.17,10.52-3.51-5.26-11-16.44-10.67-16-7.18-10.76-24.6-36.8-7.11-10.65L772.42,143l-.58-.87,39.89,3.59.61.06a3,3,0,0,0,.22-.28q1.38-1.67,2.65-3.38a75.74,75.74,0,0,0,13.32-27.56,59.33,59.33,0,0,0,1.34-8.18,52.86,52.86,0,0,0-3.61-24.74,52.74,52.74,0,0,0-3.32-6.8,61.41,61.41,0,0,0-13.5-16,142.51,142.51,0,0,1,37.17,16q3,1.84,6,3.86c13.64,9.32,26.33,21,36.07,34.62a104.93,104.93,0,0,1,12.39,22.5c.67,1.72,5.53,18.27,4.5,18.27l3.21.29,1.61.14,12.56,1.13,10.76,1,.9.08h0Z" transform="translate(-86.64 -53.9)"/></svg>